<?xml version="1.0" standalone="no"?><!DOCTYPE svg PUBLIC "-//W3C//DTD SVG 1.1//EN" "http://www.w3.org/Graphics/SVG/1.1/DTD/svg11.dtd"><svg t="1520852118550" class="icon" style="" viewBox="0 0 1024 1024" version="1.1" xmlns="http://www.w3.org/2000/svg" p-id="903" xmlns:xlink="http://www.w3.org/1999/xlink" width="200" height="200"><defs><style type="text/css"></style></defs><path d="M674.909091 768H349.090909c-13.963636 0-23.272727 9.309091-23.272727 23.272727s9.309091 23.272727 23.272727 23.272728h325.818182c13.963636 0 23.272727-9.309091 23.272727-23.272728s-9.309091-23.272727-23.272727-23.272727z m162.909091-674.909091h-193.163637c-18.618182-53.527273-69.818182-93.090909-132.654545-93.090909s-111.709091 39.563636-132.654545 93.090909H186.181818C134.981818 93.090909 93.090909 134.981818 93.090909 186.181818v744.727273c0 51.2 41.890909 93.090909 93.090909 93.090909h651.636364c51.2 0 93.090909-41.890909 93.090909-93.090909V186.181818c0-51.2-41.890909-93.090909-93.090909-93.090909zM302.545455 139.636364h116.363636c0-51.2 41.890909-93.090909 93.090909-93.090909s93.090909 41.890909 93.090909 93.090909h116.363636v69.818181c0 13.963636-9.309091 23.272727-23.272727 23.272728H325.818182c-13.963636 0-23.272727-9.309091-23.272727-23.272728V139.636364z m581.818181 791.272727c0 25.6-20.945455 46.545455-46.545454 46.545454H186.181818c-25.6 0-46.545455-20.945455-46.545454-46.545454V186.181818c0-25.6 20.945455-46.545455 46.545454-46.545454h69.818182v93.090909c0 25.6 20.945455 46.545455 46.545455 46.545454h418.90909c25.6 0 46.545455-20.945455 46.545455-46.545454V139.636364h69.818182c25.6 0 46.545455 20.945455 46.545454 46.545454v744.727273z m-209.454545-325.818182H349.090909c-13.963636 0-23.272727 9.309091-23.272727 23.272727s9.309091 23.272727 23.272727 23.272728h325.818182c13.963636 0 23.272727-9.309091 23.272727-23.272728s-9.309091-23.272727-23.272727-23.272727z m0-162.909091H349.090909c-13.963636 0-23.272727 9.309091-23.272727 23.272727s9.309091 23.272727 23.272727 23.272728h325.818182c13.963636 0 23.272727-9.309091 23.272727-23.272728s-9.309091-23.272727-23.272727-23.272727z" fill="#ffffff" p-id="904"></path></svg>