<?xml version="1.0" standalone="no"?><!DOCTYPE svg PUBLIC "-//W3C//DTD SVG 1.1//EN" "http://www.w3.org/Graphics/SVG/1.1/DTD/svg11.dtd"><svg t="1520852312160" class="icon" style="" viewBox="0 0 1024 1024" version="1.1" xmlns="http://www.w3.org/2000/svg" p-id="1457" xmlns:xlink="http://www.w3.org/1999/xlink" width="200" height="200"><defs><style type="text/css"></style></defs><path d="M360.066 396.746c-37.162 0-67.396 30.234-67.396 67.396s30.234 67.396 67.396 67.396 67.396-30.234 67.396-67.396-30.234-67.396-67.396-67.396z m0 101.094c-18.58 0-33.698-15.114-33.698-33.698 0-18.58 15.116-33.698 33.698-33.698s33.698 15.116 33.698 33.698c0 18.58-15.116 33.698-33.698 33.698zM644.64 396.746c-37.162 0-67.396 30.234-67.396 67.396s30.234 67.396 67.396 67.396 67.396-30.234 67.396-67.396-30.234-67.396-67.396-67.396z m0 101.094c-18.58 0-33.698-15.114-33.698-33.698 0-18.58 15.116-33.698 33.698-33.698s33.698 15.116 33.698 33.698c0 18.58-15.118 33.698-33.698 33.698z" fill="#ffffff" p-id="1458"></path><path d="M1023.954 395.116c-0.742-23.208-10.476-44.742-27.41-60.626-16.934-15.888-39.032-24.234-62.25-23.49-23.208 0.74-44.742 10.474-60.74 27.53L839.646 375.4a433.954 433.954 0 0 0-63.334-120.724c32.004-14.12 54.408-46.136 54.408-83.302 0-50.184-40.828-91.014-91.014-91.014H139.916c-50.184 0-91.014 40.83-91.014 91.014 0 50.186 40.828 91.016 91.014 91.016h599.668c33.792 41.65 59.116 90.32 73.7 141.668l-185.394 201.576a16.854 16.854 0 0 0-4.166 8.324l-12.922 69.466a13.86 13.86 0 0 0-0.122 0.748l-3.932 28.106c-26.756-7.96-57.924-12.318-90.864-12.318-59.956 0-117.834 16.004-151.038 41.766a16.848 16.848 0 1 0 20.654 26.624c27.584-21.398 77.544-34.692 130.384-34.692 36.428 0 70.68 5.944 96.932 16.262 0.962 0.5 1.968 0.908 3.006 1.216 11.518 4.788 21.382 10.444 29.038 16.838a16.85 16.85 0 0 0 23.732-2.134c4.908-5.88 5.12-14.108 1.062-20.164l4.492-0.578c0.49-0.062 0.978-0.148 1.46-0.254l70.508-15.44a16.856 16.856 0 0 0 8.798-5.052l32.118-34.922c-65.914 133.032-202.602 220.516-356.026 220.516-219.078-0.002-397.312-178.236-397.312-397.316 0-33.882 4.268-67.528 12.686-100a16.85 16.85 0 0 0-12.082-20.538 16.84 16.84 0 0 0-20.538 12.082C4.632 439.41 0 475.9 0 512.63c0 237.66 193.35 431.012 431.012 431.012 195.802 0 366.46-131.384 416.56-320.032l152.894-166.242c15.89-16.934 24.23-39.044 23.488-62.252zM139.916 228.69c-31.604 0-57.314-25.716-57.314-57.32S108.314 114.052 139.92 114.052h599.786c31.604 0 57.318 25.712 57.318 57.318 0 31.606-25.712 57.32-57.318 57.32H139.916z m835.86 205.744L733.716 697.62l-64.586 14.144-3.396 0.436 269.556-287.322a16.85 16.85 0 0 0-24.576-23.058L644.728 685.34l11.246-60.46 188.372-204.812c0.128-0.14 0.258-0.274 0.382-0.416l53.516-58.186c9.73-10.37 22.914-16.332 37.126-16.786 14.238-0.438 27.75 4.654 38.12 14.384s16.332 22.914 16.786 37.126c0.454 14.212-4.656 27.75-14.5 38.244z" fill="#ffffff" p-id="1459"></path><path d="M50.604 348.14m-16.848 0a16.848 16.848 0 1 0 33.696 0 16.848 16.848 0 1 0-33.696 0Z" fill="#ffffff" p-id="1460"></path></svg>