<?xml version="1.0" standalone="no"?><!DOCTYPE svg PUBLIC "-//W3C//DTD SVG 1.1//EN" "http://www.w3.org/Graphics/SVG/1.1/DTD/svg11.dtd"><svg t="1520851904388" class="icon" style="" viewBox="0 0 1024 1024" version="1.1" xmlns="http://www.w3.org/2000/svg" p-id="1177" xmlns:xlink="http://www.w3.org/1999/xlink" width="200" height="200"><defs><style type="text/css"></style></defs><path d="M128 576V448h160a32 32 0 0 0 32-32v-192a32 32 0 0 0-32-32H128V64a64 64 0 0 1 64-64h768a64 64 0 0 1 64 64v896a64 64 0 0 1-64 64H192a64 64 0 0 1-64-64v-128h160a32 32 0 0 0 32-32v-192a32 32 0 0 0-32-32H128z m704-448a64 64 0 0 0-64 64v640a64 64 0 0 0 128 0V192a64 64 0 0 0-64-64zM32 256h192a32 32 0 0 1 32 32v64a32 32 0 0 1-32 32h-192a32 32 0 0 1-32-32v-64A32 32 0 0 1 32 256z m0 384h192a32 32 0 0 1 32 32v64a32 32 0 0 1-32 32h-192a32 32 0 0 1-32-32v-64a32 32 0 0 1 32-32z" p-id="1178" fill="#ffffff"></path></svg>