<?xml version="1.0" standalone="no"?><!DOCTYPE svg PUBLIC "-//W3C//DTD SVG 1.1//EN" "http://www.w3.org/Graphics/SVG/1.1/DTD/svg11.dtd"><svg t="1521885892490" class="icon" style="" viewBox="0 0 1024 1024" version="1.1" xmlns="http://www.w3.org/2000/svg" p-id="1085" xmlns:xlink="http://www.w3.org/1999/xlink" width="200" height="200"><defs><style type="text/css"></style></defs><path d="M146.67 274.334c9.163 0 16.59-7.624 16.59-17.029 0-18.811 14.854-34.058 33.18-34.058h33.18v34.058c0 37.619 29.711 68.117 66.36 68.117s66.36-30.498 66.36-68.117V155.13c0-37.619-29.711-68.117-66.36-68.117s-66.36 30.497-66.36 68.117v34.058h-33.18c-36.649 0-66.36 30.498-66.36 68.117 0 9.406 7.427 17.029 16.59 17.029zM262.8 155.13c0-18.811 14.854-34.058 33.18-34.058s33.18 15.248 33.18 34.058v102.175c0 18.811-14.854 34.058-33.18 34.058s-33.18-15.248-33.18-34.058V155.13z m530.882 493.847c-49.309 0-90.134 36.841-98.048 85.146h-34.673c-9.163 0-16.59 7.624-16.59 17.029v102.175c0 28.216-22.282 51.088-49.77 51.088h-132.72c-27.488 0-49.77-22.872-49.77-51.088V666.006h116.13c73.299 0 132.72-60.994 132.72-136.234V257.305c0-37.619-29.711-68.117-66.36-68.117h-33.18V155.13c0-37.619-29.711-68.117-66.36-68.117s-66.36 30.497-66.36 68.117v102.175c0 37.619 29.711 68.117 66.36 68.117s66.36-30.498 66.36-68.117v-34.058h33.18c18.326 0 33.18 15.248 33.18 34.058v272.467c0 56.43-44.565 102.175-99.54 102.175H262.8c-54.975 0-99.54-45.745-99.54-102.175v-68.117c0-9.405-7.427-17.029-16.59-17.029s-16.59 7.624-16.59 17.029v68.117c0 75.24 59.421 136.234 132.72 136.234h116.13v187.321c0 47.025 37.138 85.146 82.95 85.146H594.6c45.812 0 82.95-38.121 82.95-85.146v-85.146h18.083c7.913 48.305 48.738 85.146 98.048 85.146 54.975 0 99.54-45.745 99.54-102.175s-44.565-102.175-99.539-102.175zM528.241 257.305c0 18.811-14.854 34.058-33.18 34.058s-33.18-15.248-33.18-34.058V155.13c0-18.811 14.854-34.058 33.18-34.058s33.18 15.248 33.18 34.058v102.175z m265.441 561.964c-36.649 0-66.36-30.497-66.36-68.117s29.711-68.117 66.36-68.117 66.36 30.497 66.36 68.117-29.711 68.117-66.36 68.117zM146.67 376.51c9.163 0 16.59-7.624 16.59-17.029v-34.058c0-9.405-7.427-17.029-16.59-17.029s-16.59 7.624-16.59 17.029v34.058c0 9.405 7.427 17.029 16.59 17.029z" p-id="1086" fill="#ffffff"></path></svg>